<svg xmlns="http://www.w3.org/2000/svg" viewBox="0 0 1200 630">
  <defs>
    <linearGradient id="bg" x1="0" y1="0" x2="1" y2="1">
      <stop offset="0%" stop-color="#16a34a" />
      <stop offset="100%" stop-color="#2563eb" />
    </linearGradient>
  </defs>
  <rect width="1200" height="630" fill="url(#bg)" />
  <g fill="#ffffff">
    <text x="80" y="200" font-size="96" font-family="'Inter', 'Segoe UI', sans-serif" font-weight="700">
      WILIS S.A.S
    </text>
    <text x="80" y="300" font-size="48" font-family="'Inter', 'Segoe UI', sans-serif" font-weight="500">
      La nueva forma de viajar: comparte, ahorra y conoce personas.
    </text>
  </g>
  <g fill="#ffffff" opacity="0.9">
    <path d="M900 210c-40 0-72 32-72 72v20l-100 43c-12 5-20 16-20 30 0 18 14 32 32 32h74l-32 80h116l32-80h72c18 0 32-14 32-32 0-14-8-25-20-30l-100-43v-20c0-40-32-72-72-72z" />
  </g>
</svg>
